<mxfile host="app.diagrams.net" modified="2020-10-20T19:41:24.800Z" agent="5.0 (Windows NT 10.0; Win64; x64) AppleWebKit/537.36 (KHTML, like Gecko) Chrome/86.0.4240.75 Safari/537.36" etag="WuX66ml-mC5ZhEzvnIO6" version="13.8.1" type="github">
  <diagram id="W11PHItdPMfOCp1PqULx" name="Page-1">
    <mxGraphModel dx="1929" dy="614" grid="1" gridSize="10" guides="1" tooltips="1" connect="1" arrows="1" fold="1" page="1" pageScale="1" pageWidth="827" pageHeight="1169" math="0" shadow="0">
      <root>
        <mxCell id="0" />
        <mxCell id="1" parent="0" />
        <mxCell id="j4pvCARP0-0abAjQL-_Y-91" style="edgeStyle=orthogonalEdgeStyle;rounded=0;orthogonalLoop=1;jettySize=auto;html=1;exitX=1;exitY=0.5;exitDx=0;exitDy=0;entryX=0;entryY=0.5;entryDx=0;entryDy=0;" edge="1" parent="1" source="j4pvCARP0-0abAjQL-_Y-6" target="j4pvCARP0-0abAjQL-_Y-97">
          <mxGeometry relative="1" as="geometry">
            <mxPoint x="-60" y="300" as="targetPoint" />
          </mxGeometry>
        </mxCell>
        <mxCell id="j4pvCARP0-0abAjQL-_Y-6" value="Federacion_Ajedrez" style="whiteSpace=wrap;html=1;align=center;fillColor=#d5e8d4;strokeColor=#82b366;" vertex="1" parent="1">
          <mxGeometry x="-220" y="280" width="120" height="40" as="geometry" />
        </mxCell>
        <mxCell id="j4pvCARP0-0abAjQL-_Y-77" style="edgeStyle=orthogonalEdgeStyle;rounded=0;orthogonalLoop=1;jettySize=auto;html=1;exitX=0.5;exitY=1;exitDx=0;exitDy=0;" edge="1" parent="1" source="j4pvCARP0-0abAjQL-_Y-7" target="j4pvCARP0-0abAjQL-_Y-78">
          <mxGeometry relative="1" as="geometry">
            <mxPoint x="614" y="610" as="targetPoint" />
          </mxGeometry>
        </mxCell>
        <mxCell id="j4pvCARP0-0abAjQL-_Y-94" style="edgeStyle=orthogonalEdgeStyle;rounded=0;orthogonalLoop=1;jettySize=auto;html=1;exitX=0;exitY=0.75;exitDx=0;exitDy=0;" edge="1" parent="1" source="j4pvCARP0-0abAjQL-_Y-7">
          <mxGeometry relative="1" as="geometry">
            <mxPoint x="420" y="540" as="targetPoint" />
          </mxGeometry>
        </mxCell>
        <mxCell id="j4pvCARP0-0abAjQL-_Y-7" value="Partidas" style="whiteSpace=wrap;html=1;align=center;fillColor=#d5e8d4;strokeColor=#82b366;" vertex="1" parent="1">
          <mxGeometry x="564" y="480" width="100" height="40" as="geometry" />
        </mxCell>
        <mxCell id="j4pvCARP0-0abAjQL-_Y-61" style="edgeStyle=orthogonalEdgeStyle;rounded=0;orthogonalLoop=1;jettySize=auto;html=1;exitX=0.5;exitY=1;exitDx=0;exitDy=0;entryX=0.5;entryY=0;entryDx=0;entryDy=0;" edge="1" parent="1" source="j4pvCARP0-0abAjQL-_Y-8" target="j4pvCARP0-0abAjQL-_Y-47">
          <mxGeometry relative="1" as="geometry" />
        </mxCell>
        <mxCell id="j4pvCARP0-0abAjQL-_Y-8" value="Torneos" style="whiteSpace=wrap;html=1;align=center;fillColor=#d5e8d4;strokeColor=#82b366;" vertex="1" parent="1">
          <mxGeometry x="697" y="280" width="100" height="40" as="geometry" />
        </mxCell>
        <mxCell id="j4pvCARP0-0abAjQL-_Y-9" value="Jugadores" style="whiteSpace=wrap;html=1;align=center;fillColor=#d5e8d4;strokeColor=#82b366;" vertex="1" parent="1">
          <mxGeometry x="460" y="280" width="100" height="40" as="geometry" />
        </mxCell>
        <mxCell id="j4pvCARP0-0abAjQL-_Y-10" value="Clubes" style="whiteSpace=wrap;html=1;align=center;fillColor=#d5e8d4;strokeColor=#82b366;" vertex="1" parent="1">
          <mxGeometry x="150" y="280" width="100" height="40" as="geometry" />
        </mxCell>
        <mxCell id="j4pvCARP0-0abAjQL-_Y-12" value="&lt;span style=&quot;border-bottom: 1px dotted&quot;&gt;nombre&lt;/span&gt;" style="ellipse;whiteSpace=wrap;html=1;align=center;fillColor=#fff2cc;strokeColor=#d6b656;" vertex="1" parent="1">
          <mxGeometry x="100" y="100" width="80" height="30" as="geometry" />
        </mxCell>
        <mxCell id="j4pvCARP0-0abAjQL-_Y-13" value="&lt;span style=&quot;border-bottom: 1px dotted&quot;&gt;direccion&lt;/span&gt;" style="ellipse;whiteSpace=wrap;html=1;align=center;fillColor=#fff2cc;strokeColor=#d6b656;" vertex="1" parent="1">
          <mxGeometry x="160" y="130" width="80" height="30" as="geometry" />
        </mxCell>
        <mxCell id="j4pvCARP0-0abAjQL-_Y-14" value="&lt;span style=&quot;border-bottom: 1px dotted&quot;&gt;dirigente&lt;/span&gt;" style="ellipse;whiteSpace=wrap;html=1;align=center;fillColor=#f8cecc;strokeColor=#b85450;" vertex="1" parent="1">
          <mxGeometry x="210" y="160" width="80" height="30" as="geometry" />
        </mxCell>
        <mxCell id="j4pvCARP0-0abAjQL-_Y-15" value="" style="endArrow=none;html=1;rounded=0;exitX=0.5;exitY=1;exitDx=0;exitDy=0;entryX=0.5;entryY=0;entryDx=0;entryDy=0;" edge="1" parent="1" source="j4pvCARP0-0abAjQL-_Y-14" target="j4pvCARP0-0abAjQL-_Y-10">
          <mxGeometry relative="1" as="geometry">
            <mxPoint x="270" y="320" as="sourcePoint" />
            <mxPoint x="430" y="320" as="targetPoint" />
          </mxGeometry>
        </mxCell>
        <mxCell id="j4pvCARP0-0abAjQL-_Y-16" value="" style="endArrow=none;html=1;rounded=0;exitX=0.5;exitY=1;exitDx=0;exitDy=0;entryX=0.5;entryY=0;entryDx=0;entryDy=0;" edge="1" parent="1" source="j4pvCARP0-0abAjQL-_Y-13" target="j4pvCARP0-0abAjQL-_Y-10">
          <mxGeometry relative="1" as="geometry">
            <mxPoint x="270" y="320" as="sourcePoint" />
            <mxPoint x="430" y="320" as="targetPoint" />
          </mxGeometry>
        </mxCell>
        <mxCell id="j4pvCARP0-0abAjQL-_Y-17" value="" style="endArrow=none;html=1;rounded=0;exitX=0.5;exitY=1;exitDx=0;exitDy=0;" edge="1" parent="1" source="j4pvCARP0-0abAjQL-_Y-12" target="j4pvCARP0-0abAjQL-_Y-10">
          <mxGeometry relative="1" as="geometry">
            <mxPoint x="270" y="320" as="sourcePoint" />
            <mxPoint x="430" y="320" as="targetPoint" />
          </mxGeometry>
        </mxCell>
        <mxCell id="j4pvCARP0-0abAjQL-_Y-19" value="apepat" style="ellipse;whiteSpace=wrap;html=1;align=center;fillColor=#fff2cc;strokeColor=#d6b656;" vertex="1" parent="1">
          <mxGeometry x="60" y="160" width="60" height="30" as="geometry" />
        </mxCell>
        <mxCell id="j4pvCARP0-0abAjQL-_Y-20" value="apemat" style="ellipse;whiteSpace=wrap;html=1;align=center;fillColor=#fff2cc;strokeColor=#d6b656;" vertex="1" parent="1">
          <mxGeometry x="80" y="130" width="60" height="30" as="geometry" />
        </mxCell>
        <mxCell id="j4pvCARP0-0abAjQL-_Y-21" value="" style="endArrow=none;html=1;rounded=0;exitX=1;exitY=1;exitDx=0;exitDy=0;entryX=0.25;entryY=0;entryDx=0;entryDy=0;" edge="1" parent="1" source="j4pvCARP0-0abAjQL-_Y-19" target="j4pvCARP0-0abAjQL-_Y-10">
          <mxGeometry relative="1" as="geometry">
            <mxPoint x="270" y="320" as="sourcePoint" />
            <mxPoint x="430" y="320" as="targetPoint" />
          </mxGeometry>
        </mxCell>
        <mxCell id="j4pvCARP0-0abAjQL-_Y-22" value="" style="endArrow=none;html=1;rounded=0;exitX=1;exitY=1;exitDx=0;exitDy=0;entryX=0.25;entryY=0;entryDx=0;entryDy=0;" edge="1" parent="1" source="j4pvCARP0-0abAjQL-_Y-20" target="j4pvCARP0-0abAjQL-_Y-10">
          <mxGeometry relative="1" as="geometry">
            <mxPoint x="270" y="320" as="sourcePoint" />
            <mxPoint x="190" y="277" as="targetPoint" />
          </mxGeometry>
        </mxCell>
        <mxCell id="j4pvCARP0-0abAjQL-_Y-24" value="&lt;span style=&quot;border-bottom: 1px dotted&quot;&gt;nombre&lt;/span&gt;" style="ellipse;whiteSpace=wrap;html=1;align=center;fillColor=#fff2cc;strokeColor=#d6b656;" vertex="1" parent="1">
          <mxGeometry x="464" y="130" width="80" height="30" as="geometry" />
        </mxCell>
        <mxCell id="j4pvCARP0-0abAjQL-_Y-25" value="apepat" style="ellipse;whiteSpace=wrap;html=1;align=center;fillColor=#fff2cc;strokeColor=#d6b656;" vertex="1" parent="1">
          <mxGeometry x="424" y="190" width="60" height="30" as="geometry" />
        </mxCell>
        <mxCell id="j4pvCARP0-0abAjQL-_Y-26" value="apemat" style="ellipse;whiteSpace=wrap;html=1;align=center;fillColor=#fff2cc;strokeColor=#d6b656;" vertex="1" parent="1">
          <mxGeometry x="444" y="160" width="60" height="30" as="geometry" />
        </mxCell>
        <mxCell id="j4pvCARP0-0abAjQL-_Y-27" value="categoria" style="ellipse;whiteSpace=wrap;html=1;align=center;fillColor=#fff2cc;strokeColor=#d6b656;" vertex="1" parent="1">
          <mxGeometry x="514" y="160" width="80" height="30" as="geometry" />
        </mxCell>
        <mxCell id="j4pvCARP0-0abAjQL-_Y-28" value="elo" style="ellipse;whiteSpace=wrap;html=1;align=center;fillColor=#fff2cc;strokeColor=#d6b656;" vertex="1" parent="1">
          <mxGeometry x="564" y="190" width="50" height="20" as="geometry" />
        </mxCell>
        <mxCell id="j4pvCARP0-0abAjQL-_Y-29" value="id_jugador" style="ellipse;whiteSpace=wrap;html=1;align=center;fillColor=#fff2cc;strokeColor=#d6b656;" vertex="1" parent="1">
          <mxGeometry x="414" y="220" width="70" height="30" as="geometry" />
        </mxCell>
        <mxCell id="j4pvCARP0-0abAjQL-_Y-30" value="id_club" style="ellipse;whiteSpace=wrap;html=1;align=center;fillColor=#f8cecc;strokeColor=#b85450;" vertex="1" parent="1">
          <mxGeometry x="564" y="220" width="60" height="20" as="geometry" />
        </mxCell>
        <mxCell id="j4pvCARP0-0abAjQL-_Y-31" value="" style="endArrow=none;html=1;rounded=0;exitX=0;exitY=1;exitDx=0;exitDy=0;entryX=0.5;entryY=0;entryDx=0;entryDy=0;" edge="1" parent="1" source="j4pvCARP0-0abAjQL-_Y-30" target="j4pvCARP0-0abAjQL-_Y-9">
          <mxGeometry relative="1" as="geometry">
            <mxPoint x="350" y="320" as="sourcePoint" />
            <mxPoint x="510" y="320" as="targetPoint" />
          </mxGeometry>
        </mxCell>
        <mxCell id="j4pvCARP0-0abAjQL-_Y-32" value="" style="endArrow=none;html=1;rounded=0;exitX=0;exitY=1;exitDx=0;exitDy=0;entryX=0.5;entryY=0;entryDx=0;entryDy=0;" edge="1" parent="1" source="j4pvCARP0-0abAjQL-_Y-28" target="j4pvCARP0-0abAjQL-_Y-9">
          <mxGeometry relative="1" as="geometry">
            <mxPoint x="350" y="320" as="sourcePoint" />
            <mxPoint x="510" y="320" as="targetPoint" />
          </mxGeometry>
        </mxCell>
        <mxCell id="j4pvCARP0-0abAjQL-_Y-33" value="" style="endArrow=none;html=1;rounded=0;exitX=0.5;exitY=1;exitDx=0;exitDy=0;entryX=0.5;entryY=0;entryDx=0;entryDy=0;" edge="1" parent="1" source="j4pvCARP0-0abAjQL-_Y-27" target="j4pvCARP0-0abAjQL-_Y-9">
          <mxGeometry relative="1" as="geometry">
            <mxPoint x="350" y="320" as="sourcePoint" />
            <mxPoint x="510" y="320" as="targetPoint" />
          </mxGeometry>
        </mxCell>
        <mxCell id="j4pvCARP0-0abAjQL-_Y-34" value="" style="endArrow=none;html=1;rounded=0;exitX=0.5;exitY=1;exitDx=0;exitDy=0;entryX=0.5;entryY=0;entryDx=0;entryDy=0;" edge="1" parent="1" source="j4pvCARP0-0abAjQL-_Y-24" target="j4pvCARP0-0abAjQL-_Y-9">
          <mxGeometry relative="1" as="geometry">
            <mxPoint x="350" y="320" as="sourcePoint" />
            <mxPoint x="510" y="280" as="targetPoint" />
          </mxGeometry>
        </mxCell>
        <mxCell id="j4pvCARP0-0abAjQL-_Y-35" value="" style="endArrow=none;html=1;rounded=0;entryX=0.5;entryY=0;entryDx=0;entryDy=0;exitX=1;exitY=1;exitDx=0;exitDy=0;" edge="1" parent="1" source="j4pvCARP0-0abAjQL-_Y-26" target="j4pvCARP0-0abAjQL-_Y-9">
          <mxGeometry relative="1" as="geometry">
            <mxPoint x="490" y="180" as="sourcePoint" />
            <mxPoint x="510" y="320" as="targetPoint" />
          </mxGeometry>
        </mxCell>
        <mxCell id="j4pvCARP0-0abAjQL-_Y-36" value="" style="endArrow=none;html=1;rounded=0;exitX=1;exitY=1;exitDx=0;exitDy=0;entryX=0.5;entryY=0;entryDx=0;entryDy=0;" edge="1" parent="1" source="j4pvCARP0-0abAjQL-_Y-25" target="j4pvCARP0-0abAjQL-_Y-9">
          <mxGeometry relative="1" as="geometry">
            <mxPoint x="350" y="320" as="sourcePoint" />
            <mxPoint x="510" y="320" as="targetPoint" />
          </mxGeometry>
        </mxCell>
        <mxCell id="j4pvCARP0-0abAjQL-_Y-37" value="" style="endArrow=none;html=1;rounded=0;exitX=0.5;exitY=1;exitDx=0;exitDy=0;entryX=0.25;entryY=0;entryDx=0;entryDy=0;" edge="1" parent="1" source="j4pvCARP0-0abAjQL-_Y-29" target="j4pvCARP0-0abAjQL-_Y-9">
          <mxGeometry relative="1" as="geometry">
            <mxPoint x="350" y="320" as="sourcePoint" />
            <mxPoint x="510" y="320" as="targetPoint" />
          </mxGeometry>
        </mxCell>
        <mxCell id="j4pvCARP0-0abAjQL-_Y-38" value="id_torneo" style="ellipse;whiteSpace=wrap;html=1;align=center;fillColor=#f8cecc;strokeColor=#b85450;" vertex="1" parent="1">
          <mxGeometry x="657" y="220" width="60" height="30" as="geometry" />
        </mxCell>
        <mxCell id="j4pvCARP0-0abAjQL-_Y-39" value="tipo" style="ellipse;whiteSpace=wrap;html=1;align=center;fillColor=#fff2cc;strokeColor=#d6b656;" vertex="1" parent="1">
          <mxGeometry x="777" y="200" width="50" height="20" as="geometry" />
        </mxCell>
        <mxCell id="j4pvCARP0-0abAjQL-_Y-40" value="id_oranizador" style="ellipse;whiteSpace=wrap;html=1;align=center;fillColor=#fff2cc;strokeColor=#d6b656;" vertex="1" parent="1">
          <mxGeometry x="702" y="160" width="90" height="30" as="geometry" />
        </mxCell>
        <mxCell id="j4pvCARP0-0abAjQL-_Y-41" value="fecha" style="ellipse;whiteSpace=wrap;html=1;align=center;fillColor=#fff2cc;strokeColor=#d6b656;" vertex="1" parent="1">
          <mxGeometry x="677" y="195" width="50" height="20" as="geometry" />
        </mxCell>
        <mxCell id="j4pvCARP0-0abAjQL-_Y-42" value="" style="endArrow=none;html=1;rounded=0;exitX=0;exitY=1;exitDx=0;exitDy=0;entryX=0.5;entryY=0;entryDx=0;entryDy=0;" edge="1" parent="1" source="j4pvCARP0-0abAjQL-_Y-39" target="j4pvCARP0-0abAjQL-_Y-8">
          <mxGeometry relative="1" as="geometry">
            <mxPoint x="367" y="320" as="sourcePoint" />
            <mxPoint x="527" y="320" as="targetPoint" />
          </mxGeometry>
        </mxCell>
        <mxCell id="j4pvCARP0-0abAjQL-_Y-43" value="" style="endArrow=none;html=1;rounded=0;exitX=0.5;exitY=1;exitDx=0;exitDy=0;entryX=0.5;entryY=0;entryDx=0;entryDy=0;" edge="1" parent="1" source="j4pvCARP0-0abAjQL-_Y-40" target="j4pvCARP0-0abAjQL-_Y-8">
          <mxGeometry relative="1" as="geometry">
            <mxPoint x="367" y="320" as="sourcePoint" />
            <mxPoint x="527" y="320" as="targetPoint" />
          </mxGeometry>
        </mxCell>
        <mxCell id="j4pvCARP0-0abAjQL-_Y-44" value="" style="endArrow=none;html=1;rounded=0;exitX=1;exitY=1;exitDx=0;exitDy=0;entryX=0.5;entryY=0;entryDx=0;entryDy=0;" edge="1" parent="1" source="j4pvCARP0-0abAjQL-_Y-41" target="j4pvCARP0-0abAjQL-_Y-8">
          <mxGeometry relative="1" as="geometry">
            <mxPoint x="367" y="320" as="sourcePoint" />
            <mxPoint x="527" y="320" as="targetPoint" />
          </mxGeometry>
        </mxCell>
        <mxCell id="j4pvCARP0-0abAjQL-_Y-45" value="" style="endArrow=none;html=1;rounded=0;exitX=0.5;exitY=1;exitDx=0;exitDy=0;entryX=0.25;entryY=0;entryDx=0;entryDy=0;" edge="1" parent="1" source="j4pvCARP0-0abAjQL-_Y-38" target="j4pvCARP0-0abAjQL-_Y-8">
          <mxGeometry relative="1" as="geometry">
            <mxPoint x="367" y="320" as="sourcePoint" />
            <mxPoint x="527" y="320" as="targetPoint" />
          </mxGeometry>
        </mxCell>
        <mxCell id="j4pvCARP0-0abAjQL-_Y-62" style="edgeStyle=orthogonalEdgeStyle;rounded=0;orthogonalLoop=1;jettySize=auto;html=1;exitX=0.5;exitY=1;exitDx=0;exitDy=0;entryX=1;entryY=0.5;entryDx=0;entryDy=0;" edge="1" parent="1" source="j4pvCARP0-0abAjQL-_Y-47" target="j4pvCARP0-0abAjQL-_Y-7">
          <mxGeometry relative="1" as="geometry" />
        </mxCell>
        <mxCell id="j4pvCARP0-0abAjQL-_Y-47" value="se realizan" style="shape=rhombus;perimeter=rhombusPerimeter;whiteSpace=wrap;html=1;align=center;fillColor=#dae8fc;strokeColor=#6c8ebf;" vertex="1" parent="1">
          <mxGeometry x="704.5" y="390" width="85" height="50" as="geometry" />
        </mxCell>
        <mxCell id="j4pvCARP0-0abAjQL-_Y-51" style="edgeStyle=orthogonalEdgeStyle;rounded=0;orthogonalLoop=1;jettySize=auto;html=1;exitX=0.5;exitY=1;exitDx=0;exitDy=0;entryX=0;entryY=0.5;entryDx=0;entryDy=0;" edge="1" parent="1" source="j4pvCARP0-0abAjQL-_Y-48" target="j4pvCARP0-0abAjQL-_Y-7">
          <mxGeometry relative="1" as="geometry" />
        </mxCell>
        <mxCell id="j4pvCARP0-0abAjQL-_Y-48" value="juegan" style="shape=rhombus;perimeter=rhombusPerimeter;whiteSpace=wrap;html=1;align=center;fillColor=#dae8fc;strokeColor=#6c8ebf;" vertex="1" parent="1">
          <mxGeometry x="467.5" y="390" width="85" height="50" as="geometry" />
        </mxCell>
        <mxCell id="j4pvCARP0-0abAjQL-_Y-49" value="" style="endArrow=none;html=1;rounded=0;entryX=0.5;entryY=1;entryDx=0;entryDy=0;exitX=0.5;exitY=0;exitDx=0;exitDy=0;" edge="1" parent="1" source="j4pvCARP0-0abAjQL-_Y-48" target="j4pvCARP0-0abAjQL-_Y-9">
          <mxGeometry relative="1" as="geometry">
            <mxPoint x="350" y="310" as="sourcePoint" />
            <mxPoint x="510" y="310" as="targetPoint" />
          </mxGeometry>
        </mxCell>
        <mxCell id="j4pvCARP0-0abAjQL-_Y-54" value="N:M" style="text;html=1;align=center;verticalAlign=middle;resizable=0;points=[];autosize=1;" vertex="1" parent="1">
          <mxGeometry x="509" y="330" width="40" height="20" as="geometry" />
        </mxCell>
        <mxCell id="j4pvCARP0-0abAjQL-_Y-55" value="1:M" style="text;html=1;align=center;verticalAlign=middle;resizable=0;points=[];autosize=1;" vertex="1" parent="1">
          <mxGeometry x="512.5" y="470" width="40" height="20" as="geometry" />
        </mxCell>
        <mxCell id="j4pvCARP0-0abAjQL-_Y-65" style="edgeStyle=orthogonalEdgeStyle;rounded=0;orthogonalLoop=1;jettySize=auto;html=1;exitX=0.5;exitY=0;exitDx=0;exitDy=0;entryX=0.32;entryY=1;entryDx=0;entryDy=0;entryPerimeter=0;" edge="1" parent="1" target="j4pvCARP0-0abAjQL-_Y-7">
          <mxGeometry relative="1" as="geometry">
            <mxPoint x="585" y="585" as="sourcePoint" />
          </mxGeometry>
        </mxCell>
        <mxCell id="j4pvCARP0-0abAjQL-_Y-63" style="edgeStyle=orthogonalEdgeStyle;rounded=0;orthogonalLoop=1;jettySize=auto;html=1;exitX=0.5;exitY=0;exitDx=0;exitDy=0;" edge="1" parent="1" source="j4pvCARP0-0abAjQL-_Y-58">
          <mxGeometry relative="1" as="geometry">
            <mxPoint x="640" y="520" as="targetPoint" />
          </mxGeometry>
        </mxCell>
        <mxCell id="j4pvCARP0-0abAjQL-_Y-58" value="resultado" style="ellipse;whiteSpace=wrap;html=1;align=center;fillColor=#fff2cc;strokeColor=#d6b656;" vertex="1" parent="1">
          <mxGeometry x="664" y="590" width="70" height="20" as="geometry" />
        </mxCell>
        <mxCell id="j4pvCARP0-0abAjQL-_Y-64" style="edgeStyle=orthogonalEdgeStyle;rounded=0;orthogonalLoop=1;jettySize=auto;html=1;exitX=0.5;exitY=0;exitDx=0;exitDy=0;entryX=0.75;entryY=1;entryDx=0;entryDy=0;" edge="1" parent="1" source="j4pvCARP0-0abAjQL-_Y-59" target="j4pvCARP0-0abAjQL-_Y-7">
          <mxGeometry relative="1" as="geometry" />
        </mxCell>
        <mxCell id="j4pvCARP0-0abAjQL-_Y-59" value="ganador" style="ellipse;whiteSpace=wrap;html=1;align=center;fillColor=#fff2cc;strokeColor=#d6b656;" vertex="1" parent="1">
          <mxGeometry x="702" y="540" width="70" height="30" as="geometry" />
        </mxCell>
        <mxCell id="j4pvCARP0-0abAjQL-_Y-60" value="N:M" style="text;html=1;align=center;verticalAlign=middle;resizable=0;points=[];autosize=1;" vertex="1" parent="1">
          <mxGeometry x="420" y="405" width="40" height="20" as="geometry" />
        </mxCell>
        <mxCell id="j4pvCARP0-0abAjQL-_Y-69" style="edgeStyle=orthogonalEdgeStyle;rounded=0;orthogonalLoop=1;jettySize=auto;html=1;exitX=1;exitY=0;exitDx=0;exitDy=0;entryX=0.25;entryY=1;entryDx=0;entryDy=0;" edge="1" parent="1" source="j4pvCARP0-0abAjQL-_Y-66" target="j4pvCARP0-0abAjQL-_Y-7">
          <mxGeometry relative="1" as="geometry" />
        </mxCell>
        <mxCell id="j4pvCARP0-0abAjQL-_Y-66" value="jugador1" style="ellipse;whiteSpace=wrap;html=1;align=center;fillColor=#fff2cc;strokeColor=#d6b656;" vertex="1" parent="1">
          <mxGeometry x="484" y="580" width="70" height="30" as="geometry" />
        </mxCell>
        <mxCell id="j4pvCARP0-0abAjQL-_Y-68" style="edgeStyle=orthogonalEdgeStyle;rounded=0;orthogonalLoop=1;jettySize=auto;html=1;exitX=1;exitY=0;exitDx=0;exitDy=0;entryX=0;entryY=1;entryDx=0;entryDy=0;" edge="1" parent="1" source="j4pvCARP0-0abAjQL-_Y-67" target="j4pvCARP0-0abAjQL-_Y-7">
          <mxGeometry relative="1" as="geometry" />
        </mxCell>
        <mxCell id="j4pvCARP0-0abAjQL-_Y-67" value="jugador2" style="ellipse;whiteSpace=wrap;html=1;align=center;fillColor=#fff2cc;strokeColor=#d6b656;" vertex="1" parent="1">
          <mxGeometry x="434" y="555" width="70" height="30" as="geometry" />
        </mxCell>
        <mxCell id="j4pvCARP0-0abAjQL-_Y-71" style="edgeStyle=orthogonalEdgeStyle;rounded=0;orthogonalLoop=1;jettySize=auto;html=1;exitX=1;exitY=0.5;exitDx=0;exitDy=0;entryX=0;entryY=0.5;entryDx=0;entryDy=0;" edge="1" parent="1" source="j4pvCARP0-0abAjQL-_Y-70" target="j4pvCARP0-0abAjQL-_Y-9">
          <mxGeometry relative="1" as="geometry" />
        </mxCell>
        <mxCell id="j4pvCARP0-0abAjQL-_Y-72" style="edgeStyle=orthogonalEdgeStyle;rounded=0;orthogonalLoop=1;jettySize=auto;html=1;exitX=0;exitY=0.5;exitDx=0;exitDy=0;entryX=1;entryY=0.5;entryDx=0;entryDy=0;" edge="1" parent="1" source="j4pvCARP0-0abAjQL-_Y-70" target="j4pvCARP0-0abAjQL-_Y-10">
          <mxGeometry relative="1" as="geometry" />
        </mxCell>
        <mxCell id="j4pvCARP0-0abAjQL-_Y-70" value="pertenece" style="shape=rhombus;perimeter=rhombusPerimeter;whiteSpace=wrap;html=1;align=center;fillColor=#dae8fc;strokeColor=#6c8ebf;" vertex="1" parent="1">
          <mxGeometry x="320" y="280" width="70" height="40" as="geometry" />
        </mxCell>
        <mxCell id="j4pvCARP0-0abAjQL-_Y-73" value="1:M" style="text;html=1;align=center;verticalAlign=middle;resizable=0;points=[];autosize=1;" vertex="1" parent="1">
          <mxGeometry x="250" y="270" width="40" height="20" as="geometry" />
        </mxCell>
        <mxCell id="j4pvCARP0-0abAjQL-_Y-74" value="1:1" style="text;html=1;align=center;verticalAlign=middle;resizable=0;points=[];autosize=1;" vertex="1" parent="1">
          <mxGeometry x="424" y="280" width="30" height="20" as="geometry" />
        </mxCell>
        <mxCell id="j4pvCARP0-0abAjQL-_Y-75" value="1:M" style="text;html=1;align=center;verticalAlign=middle;resizable=0;points=[];autosize=1;" vertex="1" parent="1">
          <mxGeometry x="335" y="250" width="40" height="20" as="geometry" />
        </mxCell>
        <mxCell id="j4pvCARP0-0abAjQL-_Y-76" style="edgeStyle=orthogonalEdgeStyle;rounded=0;orthogonalLoop=1;jettySize=auto;html=1;exitX=0.5;exitY=1;exitDx=0;exitDy=0;entryX=0.75;entryY=1;entryDx=0;entryDy=0;" edge="1" parent="1" source="j4pvCARP0-0abAjQL-_Y-7" target="j4pvCARP0-0abAjQL-_Y-7">
          <mxGeometry relative="1" as="geometry" />
        </mxCell>
        <mxCell id="j4pvCARP0-0abAjQL-_Y-78" value="" style="triangle;whiteSpace=wrap;html=1;rotation=90;" vertex="1" parent="1">
          <mxGeometry x="600" y="610" width="34" height="50" as="geometry" />
        </mxCell>
        <mxCell id="j4pvCARP0-0abAjQL-_Y-80" style="edgeStyle=orthogonalEdgeStyle;rounded=0;orthogonalLoop=1;jettySize=auto;html=1;exitX=0.5;exitY=0;exitDx=0;exitDy=0;entryX=0.5;entryY=1;entryDx=0;entryDy=0;" edge="1" parent="1" source="j4pvCARP0-0abAjQL-_Y-79" target="j4pvCARP0-0abAjQL-_Y-78">
          <mxGeometry relative="1" as="geometry" />
        </mxCell>
        <mxCell id="j4pvCARP0-0abAjQL-_Y-79" value="Tiempo" style="whiteSpace=wrap;html=1;align=center;fillColor=#d5e8d4;strokeColor=#82b366;" vertex="1" parent="1">
          <mxGeometry x="519" y="680" width="70" height="20" as="geometry" />
        </mxCell>
        <mxCell id="j4pvCARP0-0abAjQL-_Y-82" style="edgeStyle=orthogonalEdgeStyle;rounded=0;orthogonalLoop=1;jettySize=auto;html=1;exitX=0.5;exitY=0;exitDx=0;exitDy=0;" edge="1" parent="1" source="j4pvCARP0-0abAjQL-_Y-81">
          <mxGeometry relative="1" as="geometry">
            <mxPoint x="629" y="643" as="targetPoint" />
          </mxGeometry>
        </mxCell>
        <mxCell id="j4pvCARP0-0abAjQL-_Y-81" value="sin_tiempo" style="whiteSpace=wrap;html=1;align=center;fillColor=#d5e8d4;strokeColor=#82b366;" vertex="1" parent="1">
          <mxGeometry x="634.5" y="680" width="70" height="20" as="geometry" />
        </mxCell>
        <mxCell id="j4pvCARP0-0abAjQL-_Y-84" style="edgeStyle=orthogonalEdgeStyle;rounded=0;orthogonalLoop=1;jettySize=auto;html=1;exitX=0.5;exitY=0;exitDx=0;exitDy=0;entryX=0.5;entryY=1;entryDx=0;entryDy=0;" edge="1" parent="1" source="j4pvCARP0-0abAjQL-_Y-83" target="j4pvCARP0-0abAjQL-_Y-79">
          <mxGeometry relative="1" as="geometry" />
        </mxCell>
        <mxCell id="j4pvCARP0-0abAjQL-_Y-83" value="duracion" style="ellipse;whiteSpace=wrap;html=1;align=center;fillColor=#fff2cc;strokeColor=#d6b656;" vertex="1" parent="1">
          <mxGeometry x="479" y="730" width="70" height="30" as="geometry" />
        </mxCell>
        <mxCell id="j4pvCARP0-0abAjQL-_Y-86" style="edgeStyle=orthogonalEdgeStyle;rounded=0;orthogonalLoop=1;jettySize=auto;html=1;exitX=0.5;exitY=0;exitDx=0;exitDy=0;entryX=0.75;entryY=1;entryDx=0;entryDy=0;" edge="1" parent="1" source="j4pvCARP0-0abAjQL-_Y-85" target="j4pvCARP0-0abAjQL-_Y-79">
          <mxGeometry relative="1" as="geometry" />
        </mxCell>
        <mxCell id="j4pvCARP0-0abAjQL-_Y-85" value="id_tipo" style="ellipse;whiteSpace=wrap;html=1;align=center;fillColor=#f8cecc;strokeColor=#b85450;" vertex="1" parent="1">
          <mxGeometry x="552.5" y="740" width="70" height="30" as="geometry" />
        </mxCell>
        <mxCell id="j4pvCARP0-0abAjQL-_Y-88" style="edgeStyle=orthogonalEdgeStyle;rounded=0;orthogonalLoop=1;jettySize=auto;html=1;exitX=0.5;exitY=0;exitDx=0;exitDy=0;entryX=0.5;entryY=1;entryDx=0;entryDy=0;" edge="1" parent="1" source="j4pvCARP0-0abAjQL-_Y-87" target="j4pvCARP0-0abAjQL-_Y-81">
          <mxGeometry relative="1" as="geometry" />
        </mxCell>
        <mxCell id="j4pvCARP0-0abAjQL-_Y-87" value="id_tipo" style="ellipse;whiteSpace=wrap;html=1;align=center;fillColor=#f8cecc;strokeColor=#b85450;" vertex="1" parent="1">
          <mxGeometry x="664" y="740" width="70" height="30" as="geometry" />
        </mxCell>
        <mxCell id="j4pvCARP0-0abAjQL-_Y-90" style="edgeStyle=orthogonalEdgeStyle;rounded=0;orthogonalLoop=1;jettySize=auto;html=1;exitX=1;exitY=1;exitDx=0;exitDy=0;entryX=0;entryY=0.25;entryDx=0;entryDy=0;" edge="1" parent="1" source="j4pvCARP0-0abAjQL-_Y-89" target="j4pvCARP0-0abAjQL-_Y-10">
          <mxGeometry relative="1" as="geometry" />
        </mxCell>
        <mxCell id="j4pvCARP0-0abAjQL-_Y-89" value="afiliado" style="ellipse;whiteSpace=wrap;html=1;align=center;fillColor=#fff2cc;strokeColor=#d6b656;" vertex="1" parent="1">
          <mxGeometry x="40" y="195" width="60" height="30" as="geometry" />
        </mxCell>
        <mxCell id="j4pvCARP0-0abAjQL-_Y-93" style="edgeStyle=orthogonalEdgeStyle;rounded=0;orthogonalLoop=1;jettySize=auto;html=1;exitX=0.5;exitY=1;exitDx=0;exitDy=0;entryX=0.067;entryY=0;entryDx=0;entryDy=0;entryPerimeter=0;" edge="1" parent="1" source="j4pvCARP0-0abAjQL-_Y-92" target="j4pvCARP0-0abAjQL-_Y-6">
          <mxGeometry relative="1" as="geometry" />
        </mxCell>
        <mxCell id="j4pvCARP0-0abAjQL-_Y-92" value="&lt;span style=&quot;border-bottom: 1px dotted&quot;&gt;nombre&lt;/span&gt;" style="ellipse;whiteSpace=wrap;html=1;align=center;fillColor=#fff2cc;strokeColor=#d6b656;" vertex="1" parent="1">
          <mxGeometry x="-250" y="200" width="80" height="30" as="geometry" />
        </mxCell>
        <mxCell id="j4pvCARP0-0abAjQL-_Y-95" value="id_partida" style="ellipse;whiteSpace=wrap;html=1;align=center;fillColor=#f8cecc;strokeColor=#b85450;" vertex="1" parent="1">
          <mxGeometry x="374" y="540" width="70" height="30" as="geometry" />
        </mxCell>
        <mxCell id="j4pvCARP0-0abAjQL-_Y-99" style="edgeStyle=orthogonalEdgeStyle;rounded=0;orthogonalLoop=1;jettySize=auto;html=1;exitX=0.5;exitY=1;exitDx=0;exitDy=0;entryX=0.75;entryY=0;entryDx=0;entryDy=0;" edge="1" parent="1" source="j4pvCARP0-0abAjQL-_Y-96" target="j4pvCARP0-0abAjQL-_Y-6">
          <mxGeometry relative="1" as="geometry" />
        </mxCell>
        <mxCell id="j4pvCARP0-0abAjQL-_Y-96" value="id_fede" style="ellipse;whiteSpace=wrap;html=1;align=center;fillColor=#f8cecc;strokeColor=#b85450;" vertex="1" parent="1">
          <mxGeometry x="-170" y="200" width="80" height="30" as="geometry" />
        </mxCell>
        <mxCell id="j4pvCARP0-0abAjQL-_Y-98" style="edgeStyle=orthogonalEdgeStyle;rounded=0;orthogonalLoop=1;jettySize=auto;html=1;exitX=1;exitY=0.5;exitDx=0;exitDy=0;" edge="1" parent="1" source="j4pvCARP0-0abAjQL-_Y-97" target="j4pvCARP0-0abAjQL-_Y-10">
          <mxGeometry relative="1" as="geometry" />
        </mxCell>
        <mxCell id="j4pvCARP0-0abAjQL-_Y-97" value="tiene" style="shape=rhombus;perimeter=rhombusPerimeter;whiteSpace=wrap;html=1;align=center;fillColor=#dae8fc;strokeColor=#6c8ebf;" vertex="1" parent="1">
          <mxGeometry x="-40" y="285" width="70" height="30" as="geometry" />
        </mxCell>
        <mxCell id="j4pvCARP0-0abAjQL-_Y-100" value="1:M" style="text;html=1;align=center;verticalAlign=middle;resizable=0;points=[];autosize=1;" vertex="1" parent="1">
          <mxGeometry x="-100" y="260" width="40" height="20" as="geometry" />
        </mxCell>
        <mxCell id="j4pvCARP0-0abAjQL-_Y-101" value="1:1" style="text;html=1;align=center;verticalAlign=middle;resizable=0;points=[];autosize=1;" vertex="1" parent="1">
          <mxGeometry x="85" y="270" width="30" height="20" as="geometry" />
        </mxCell>
        <mxCell id="j4pvCARP0-0abAjQL-_Y-102" value="1:M" style="text;html=1;align=center;verticalAlign=middle;resizable=0;points=[];autosize=1;" vertex="1" parent="1">
          <mxGeometry x="-20" y="250" width="40" height="20" as="geometry" />
        </mxCell>
      </root>
    </mxGraphModel>
  </diagram>
</mxfile>
